<?xml version="1.0" encoding="UTF-8" standalone="no"?>
<!DOCTYPE svg PUBLIC "-//W3C//DTD SVG 1.1//EN" "http://www.w3.org/Graphics/SVG/1.1/DTD/svg11.dtd">
<svg width="100%" height="100%" viewBox="0 0 32 32" version="1.1" xmlns="http://www.w3.org/2000/svg" xmlns:xlink="http://www.w3.org/1999/xlink" xml:space="preserve" xmlns:serif="http://www.serif.com/" style="fill-rule:evenodd;clip-rule:evenodd;stroke-linejoin:round;stroke-miterlimit:2;">
    <g transform="matrix(0.023918,1.02036e-05,-1.02036e-05,0.023918,2.7281,10.6321)">
        <path d="M1038.03,183.716C1038.03,183.716 1008.77,267.937 913.093,313.086C834.223,350.306 767.713,356.216 698.743,342.397C641.533,330.937 586.923,300.306 554.973,255.256C523.023,300.306 468.413,330.937 411.203,342.397C342.233,356.216 275.723,350.306 196.853,313.086C101.173,267.937 71.912,183.716 71.912,183.716C130.082,234.917 219.603,230.026 280.263,187.536C307.023,168.796 324.173,144.316 352.063,126.366C405.903,91.717 498.113,89.897 554.973,122.136C611.833,89.897 704.043,91.717 757.883,126.366C785.773,144.316 802.923,168.796 829.683,187.536C890.343,230.026 979.863,234.917 1038.03,183.716Z" style="fill:white;fill-rule:nonzero;"/>
    </g>
</svg>
