<?xml version="1.0" encoding="UTF-8" standalone="no"?>
<!DOCTYPE svg PUBLIC "-//W3C//DTD SVG 1.1//EN" "http://www.w3.org/Graphics/SVG/1.1/DTD/svg11.dtd">
<svg width="100%" height="100%" viewBox="0 0 64 64" version="1.1" xmlns="http://www.w3.org/2000/svg" xmlns:xlink="http://www.w3.org/1999/xlink" xml:space="preserve" xmlns:serif="http://www.serif.com/" style="fill-rule:evenodd;clip-rule:evenodd;stroke-linejoin:round;stroke-miterlimit:2;">
    <g transform="matrix(1,0,0,1,-229.234,-229.235)">
        <g transform="matrix(0.122415,0,0,0.122415,227.069,229.255)">
            <g transform="matrix(1,0,0,1,6,8.96289)">
                <g transform="matrix(1.06476,0,0,1.22836,122.663,-68.6149)">
                    <path d="M166.167,142.465C166.167,139.991 165.214,137.8 163.311,135.898L149.034,121.622C147.131,119.719 144.941,118.765 142.467,118.765C139.993,118.765 137.802,119.72 135.9,121.622L2.856,254.666C0.95,256.569 0,258.759 0,261.233C0,263.707 0.953,265.897 2.856,267.799L135.899,400.843C137.801,402.749 139.988,403.697 142.466,403.697C144.944,403.697 147.131,402.746 149.033,400.843L163.31,386.575C165.213,384.673 166.166,382.482 166.166,380.005C166.166,377.534 165.213,375.344 163.31,373.442L51.107,261.233L163.311,149.032C165.217,147.13 166.167,144.939 166.167,142.465Z" style="fill:white;fill-rule:nonzero;stroke:white;stroke-width:7.11px;"/>
                </g>
                <g transform="matrix(-1.06476,0,0,1.22836,504.591,-68.6149)">
                    <path d="M166.167,142.465C166.167,139.991 165.214,137.8 163.311,135.898L149.034,121.622C147.131,119.719 144.941,118.765 142.467,118.765C139.993,118.765 137.802,119.72 135.9,121.622L2.856,254.666C0.95,256.569 0,258.759 0,261.233C0,263.707 0.953,265.897 2.856,267.799L135.899,400.843C137.801,402.749 139.988,403.697 142.466,403.697C144.944,403.697 147.131,402.746 149.033,400.843L163.31,386.575C165.213,384.673 166.166,382.482 166.166,380.005C166.166,377.534 165.213,375.344 163.31,373.442L51.107,261.233L163.311,149.032C165.217,147.13 166.167,144.939 166.167,142.465Z" style="fill:white;fill-rule:nonzero;stroke:white;stroke-width:7.11px;"/>
                </g>
            </g>
            <g transform="matrix(1.79549,0,0,6.43676,-24.3629,-346.147)">
                <path d="M81.842,63.872L81.842,124.85C81.842,126.458 77.162,127.763 71.399,127.763L50.513,127.763C44.75,127.763 40.07,126.458 40.07,124.85L40.07,63.872C40.07,62.265 44.75,60.959 50.513,60.959L71.399,60.959C77.162,60.959 81.842,62.265 81.842,63.872Z" style="fill:white;stroke:white;stroke-width:1.73px;stroke-linecap:round;stroke-linejoin:miter;stroke-miterlimit:3.5;"/>
            </g>
        </g>
        <g transform="matrix(1.15522e-17,-0.126495,-0.264484,8.9223e-19,291.195,269.094)">
            <path d="M81.842,65.954L81.842,122.769C81.842,125.525 77.162,127.763 71.399,127.763L50.513,127.763C44.75,127.763 40.07,125.525 40.07,122.769L40.07,65.954C40.07,63.197 44.75,60.959 50.513,60.959L71.399,60.959C77.162,60.959 81.842,63.197 81.842,65.954Z" style="fill:white;"/>
        </g>
    </g>
</svg>
