<?xml version="1.0" encoding="UTF-8" standalone="no"?>
<!DOCTYPE svg PUBLIC "-//W3C//DTD SVG 1.1//EN" "http://www.w3.org/Graphics/SVG/1.1/DTD/svg11.dtd">
<svg width="100%" height="100%" viewBox="0 0 900 300" version="1.1" xmlns="http://www.w3.org/2000/svg" xmlns:xlink="http://www.w3.org/1999/xlink" xml:space="preserve" xmlns:serif="http://www.serif.com/" style="fill-rule:evenodd;clip-rule:evenodd;stroke-linejoin:round;stroke-miterlimit:2;">
    <g transform="matrix(0.454771,0,0,-0.524649,79.05,305.366)">
        <path d="M166.167,142.465C166.167,139.991 165.214,137.8 163.311,135.898L149.034,121.622C147.131,119.719 144.941,118.765 142.467,118.765C139.993,118.765 137.802,119.72 135.9,121.622L2.856,254.666C0.95,256.569 0,258.759 0,261.233C0,263.707 0.953,265.897 2.856,267.799L135.899,400.843C137.801,402.749 139.988,403.697 142.466,403.697C144.944,403.697 147.131,402.746 149.033,400.843L163.31,386.575C165.213,384.673 166.166,382.482 166.166,380.005C166.166,377.534 165.213,375.344 163.31,373.442L51.107,261.233L163.311,149.032C165.217,147.13 166.167,144.939 166.167,142.465Z" style="fill:white;fill-rule:nonzero;"/>
    </g>
    <g transform="matrix(-0.454771,0,0,-0.524649,242.176,305.366)">
        <path d="M166.167,142.465C166.167,139.991 165.214,137.8 163.311,135.898L149.034,121.622C147.131,119.719 144.941,118.765 142.467,118.765C139.993,118.765 137.802,119.72 135.9,121.622L2.856,254.666C0.95,256.569 0,258.759 0,261.233C0,263.707 0.953,265.897 2.856,267.799L135.899,400.843C137.801,402.749 139.988,403.697 142.466,403.697C144.944,403.697 147.131,402.746 149.033,400.843L163.31,386.575C165.213,384.673 166.166,382.482 166.166,380.005C166.166,377.534 165.213,375.344 163.31,373.442L51.107,261.233L163.311,149.032C165.217,147.13 166.167,144.939 166.167,142.465Z" style="fill:white;fill-rule:nonzero;"/>
    </g>
    <g transform="matrix(0.58604,-2.21462e-17,7.9393e-17,-2.74922,22.9958,408.193)">
        <path d="M81.842,63.185L81.842,125.537C81.842,126.766 77.162,127.763 71.399,127.763L50.513,127.763C44.75,127.763 40.07,126.766 40.07,125.537L40.07,63.185C40.07,61.957 44.75,60.959 50.513,60.959L71.399,60.959C77.162,60.959 81.842,61.957 81.842,63.185Z" style="fill:white;"/>
    </g>
    <g transform="matrix(3.43315e-17,-0.325133,-0.743383,6.18612e-18,231.551,188.742)">
        <path d="M81.842,65.527L81.842,123.196C81.842,125.717 77.162,127.763 71.399,127.763L50.513,127.763C44.75,127.763 40.07,125.717 40.07,123.196L40.07,65.527C40.07,63.006 44.75,60.959 50.513,60.959L71.399,60.959C77.162,60.959 81.842,63.006 81.842,65.527Z" style="fill:white;"/>
    </g>
    <g transform="matrix(2.69232,0,0,2.69232,-1458.31,-991.692)">
        <text x="633.641px" y="457.247px" style="font-family:'Helvetica';font-size:72px;fill:white;">niCode</text>
    </g>
</svg>
