<?xml version="1.0" encoding="UTF-8" standalone="no"?>
<!DOCTYPE svg PUBLIC "-//W3C//DTD SVG 1.1//EN" "http://www.w3.org/Graphics/SVG/1.1/DTD/svg11.dtd">
<svg width="100%" height="100%" viewBox="0 0 1024 768" version="1.1" xmlns="http://www.w3.org/2000/svg" xmlns:xlink="http://www.w3.org/1999/xlink" xml:space="preserve" xmlns:serif="http://www.serif.com/" style="fill-rule:evenodd;clip-rule:evenodd;stroke-linejoin:round;stroke-miterlimit:2;">
    <g transform="matrix(1.75217,0,0,1.75217,-109.073,-230.109)">
        <path d="M179.159,175.185L179.159,259.813L263.787,259.813L263.787,175.185L179.159,175.185ZM287.966,175.185L287.966,187.274L312.146,187.274L312.146,175.185L287.966,175.185ZM324.235,175.185L324.235,199.364L348.415,199.364L348.415,211.454L336.325,211.454L336.325,223.543L312.146,223.543L312.146,235.633L287.966,235.633L287.966,199.364L275.877,199.364L275.877,271.902L287.966,271.902L287.966,296.082L275.877,296.082L275.877,283.992L263.787,283.992L263.787,271.902L203.338,271.902L203.338,283.992L215.428,283.992L215.428,308.171L203.338,308.171L203.338,296.082L191.249,296.082L191.249,271.902L179.159,271.902L179.159,308.171L191.249,308.171L191.249,320.261L179.159,320.261L179.159,344.44L191.249,344.44L191.249,356.53L215.428,356.53L215.428,332.351L203.338,332.351L203.338,320.261L227.518,320.261L227.518,296.082L239.608,296.082L239.608,308.171L263.787,308.171L263.787,320.261L275.877,320.261L275.877,308.171L263.787,308.171L263.787,296.082L251.697,296.082L251.697,283.992L263.787,283.992L263.787,296.082L275.877,296.082L275.877,308.171L312.146,308.171L312.146,332.351L324.235,332.351L324.235,308.171L312.146,308.171L312.146,296.082L324.235,296.082L324.235,308.171L336.325,308.171L336.325,296.082L324.235,296.082L324.235,283.992L300.056,283.992L300.056,259.813L287.966,259.813L287.966,247.723L300.056,247.723L300.056,259.813L312.146,259.813L312.146,247.723L324.235,247.723L324.235,259.813L336.325,259.813L336.325,247.723L324.235,247.723L324.235,235.633L348.415,235.633L348.415,223.543L372.594,223.543L372.594,235.633L360.504,235.633L360.504,247.723L372.594,247.723L372.594,259.813L360.504,259.813L360.504,247.723L348.415,247.723L348.415,271.902L336.325,271.902L336.325,283.992L348.415,283.992L348.415,308.171L372.594,308.171L372.594,320.261L336.325,320.261L336.325,332.351L372.594,332.351L372.594,344.44L384.684,344.44L384.684,332.351L396.774,332.351L396.774,356.53L408.863,356.53L408.863,344.44L420.953,344.44L420.953,356.53L433.043,356.53L433.043,344.44L445.132,344.44L445.132,356.53L457.222,356.53L457.222,344.44L469.312,344.44L469.312,368.62L481.401,368.62L481.401,380.709L493.491,380.709L493.491,404.889L505.581,404.889L505.581,416.979L493.491,416.979L493.491,429.068L481.401,429.068L481.401,380.709L469.312,380.709L469.312,368.62L457.222,368.62L457.222,380.709L396.774,380.709L396.774,368.62L384.684,368.62L384.684,356.53L372.594,356.53L372.594,344.44L348.415,344.44L348.415,368.62L360.504,368.62L360.504,356.53L372.594,356.53L372.594,368.62L384.684,368.62L384.684,392.799L348.415,392.799L348.415,368.62L336.325,368.62L336.325,344.44L324.235,344.44L324.235,356.53L312.146,356.53L312.146,332.351L300.056,332.351L300.056,320.261L287.966,320.261L287.966,344.44L275.877,344.44L275.877,356.53L312.146,356.53L312.146,368.62L324.235,368.62L324.235,380.709L336.325,380.709L336.325,392.799L324.235,392.799L324.235,380.709L312.146,380.709L312.146,368.62L287.966,368.62L287.966,392.799L300.056,392.799L300.056,404.889L287.966,404.889L287.966,416.979L300.056,416.979L300.056,429.068L275.877,429.068L275.877,441.158L312.146,441.158L312.146,416.979L336.325,416.979L336.325,404.889L348.415,404.889L348.415,416.979L360.504,416.979L360.504,429.068L372.594,429.068L372.594,441.158L396.774,441.158L396.774,453.248L408.863,453.248L408.863,465.337L420.953,465.337L420.953,477.427L481.401,477.427L481.401,489.517L433.043,489.517L433.043,501.606L445.132,501.606L445.132,513.696L457.222,513.696L457.222,501.606L481.401,501.606L481.401,513.696L469.312,513.696L469.312,525.786L505.581,525.786L505.581,513.696L493.491,513.696L493.491,501.606L505.581,501.606L505.581,513.696L517.67,513.696L517.67,489.517L529.76,489.517L529.76,465.337L493.491,465.337L493.491,477.427L481.401,477.427L481.401,453.248L505.581,453.248L505.581,441.158L529.76,441.158L529.76,416.979L517.67,416.979L517.67,404.889L505.581,404.889L505.581,368.62L481.401,368.62L481.401,356.53L505.581,356.53L505.581,368.62L517.67,368.62L517.67,356.53L505.581,356.53L505.581,344.44L481.401,344.44L481.401,332.351L469.312,332.351L469.312,320.261L457.222,320.261L457.222,332.351L445.132,332.351L445.132,320.261L433.043,320.261L433.043,308.171L408.863,308.171L408.863,296.082L433.043,296.082L433.043,308.171L457.222,308.171L457.222,296.082L469.312,296.082L469.312,320.261L481.401,320.261L481.401,332.351L505.581,332.351L505.581,320.261L493.491,320.261L493.491,308.171L481.401,308.171L481.401,283.992L505.581,283.992L505.581,271.902L445.132,271.902L445.132,283.992L396.774,283.992L396.774,271.902L384.684,271.902L384.684,247.723L396.774,247.723L396.774,271.902L408.863,271.902L408.863,247.723L396.774,247.723L396.774,235.633L433.043,235.633L433.043,211.454L420.953,211.454L420.953,199.364L408.863,199.364L408.863,187.274L433.043,187.274L433.043,175.185L396.774,175.185L396.774,199.364L408.863,199.364L408.863,211.454L420.953,211.454L420.953,223.543L408.863,223.543L408.863,211.454L384.684,211.454L384.684,223.543L372.594,223.543L372.594,211.454L360.504,211.454L360.504,199.364L348.415,199.364L348.415,187.274L336.325,187.274L336.325,175.185L324.235,175.185ZM348.415,175.185L348.415,187.274L360.504,187.274L360.504,199.364L372.594,199.364L372.594,187.274L360.504,187.274L360.504,175.185L348.415,175.185ZM372.594,175.185L372.594,187.274L384.684,187.274L384.684,175.185L372.594,175.185ZM445.132,175.185L445.132,259.813L529.76,259.813L529.76,175.185L445.132,175.185ZM251.697,187.274L251.697,247.723L191.249,247.723L191.249,187.274L251.697,187.274ZM517.67,187.274L517.67,247.723L457.222,247.723L457.222,187.274L517.67,187.274ZM203.338,199.364L203.338,235.633L239.608,235.633L239.608,199.364L203.338,199.364ZM300.056,199.364L300.056,211.454L324.235,211.454L324.235,199.364L300.056,199.364ZM469.312,199.364L469.312,235.633L505.581,235.633L505.581,199.364L469.312,199.364ZM420.953,247.723L420.953,271.902L433.043,271.902L433.043,247.723L420.953,247.723ZM372.594,283.992L372.594,271.902L384.684,271.902L384.684,283.992L372.594,283.992ZM517.67,283.992L517.67,296.082L529.76,296.082L529.76,283.992L517.67,283.992ZM360.504,296.082L360.504,283.992L372.594,283.992L372.594,296.082L360.504,296.082ZM505.581,308.171L505.581,320.261L517.67,320.261L517.67,308.171L505.581,308.171ZM239.608,320.261L239.608,368.62L191.249,368.62L191.249,356.53L179.159,356.53L179.159,368.62L191.249,368.62L191.249,380.709L215.428,380.709L215.428,392.799L203.338,392.799L203.338,404.889L215.428,404.889L215.428,416.979L203.338,416.979L203.338,429.068L263.787,429.068L263.787,416.979L227.518,416.979L227.518,404.889L239.608,404.889L239.608,392.799L251.697,392.799L251.697,404.889L275.877,404.889L275.877,392.799L251.697,392.799L251.697,380.709L275.877,380.709L275.877,368.62L251.697,368.62L251.697,356.53L263.787,356.53L263.787,344.44L251.697,344.44L251.697,332.351L263.787,332.351L263.787,320.261L239.608,320.261ZM384.684,320.261L384.684,308.171L408.863,308.171L408.863,332.351L396.774,332.351L396.774,320.261L384.684,320.261ZM420.953,332.351L420.953,320.261L433.043,320.261L433.043,332.351L420.953,332.351ZM517.67,332.351L517.67,344.44L529.76,344.44L529.76,332.351L517.67,332.351ZM179.159,380.709L179.159,429.068L191.249,429.068L191.249,380.709L179.159,380.709ZM517.67,380.709L517.67,392.799L529.76,392.799L529.76,380.709L517.67,380.709ZM312.146,392.799L300.056,392.799L300.056,380.709L312.146,380.709L312.146,392.799ZM433.043,392.799L433.043,404.889L445.132,404.889L445.132,392.799L457.222,392.799L457.222,404.889L469.312,404.889L469.312,416.979L420.953,416.979L420.953,404.889L396.774,404.889L396.774,392.799L433.043,392.799ZM384.684,416.979L384.684,404.889L396.774,404.889L396.774,416.979L408.863,416.979L408.863,429.068L420.953,429.068L420.953,441.158L408.863,441.158L408.863,429.068L396.774,429.068L396.774,416.979L384.684,416.979ZM336.325,429.068L336.325,441.158L324.235,441.158L324.235,453.248L336.325,453.248L336.325,465.337L348.415,465.337L348.415,477.427L372.594,477.427L372.594,489.517L348.415,489.517L348.415,477.427L324.235,477.427L324.235,453.248L275.877,453.248L275.877,501.606L300.056,501.606L300.056,513.696L275.877,513.696L275.877,525.786L312.146,525.786L312.146,501.606L300.056,501.606L300.056,477.427L287.966,477.427L287.966,465.337L312.146,465.337L312.146,501.606L324.235,501.606L324.235,525.786L336.325,525.786L336.325,501.606L324.235,501.606L324.235,489.517L336.325,489.517L336.325,501.606L372.594,501.606L372.594,513.696L384.684,513.696L384.684,525.786L396.774,525.786L396.774,513.696L384.684,513.696L384.684,501.606L420.953,501.606L420.953,513.696L433.043,513.696L433.043,525.786L445.132,525.786L445.132,513.696L433.043,513.696L433.043,501.606L420.953,501.606L420.953,477.427L396.774,477.427L396.774,465.337L384.684,465.337L384.684,453.248L372.594,453.248L372.594,441.158L348.415,441.158L348.415,429.068L336.325,429.068ZM384.684,429.068L372.594,429.068L372.594,416.979L384.684,416.979L384.684,429.068ZM469.312,429.068L469.312,465.337L433.043,465.337L433.043,429.068L469.312,429.068ZM179.159,441.158L179.159,525.786L263.787,525.786L263.787,441.158L179.159,441.158ZM445.132,441.158L445.132,453.248L457.222,453.248L457.222,441.158L445.132,441.158ZM251.697,453.248L251.697,513.696L191.249,513.696L191.249,453.248L251.697,453.248ZM360.504,453.248L360.504,465.337L348.415,465.337L348.415,453.248L360.504,453.248ZM203.338,465.337L203.338,501.606L239.608,501.606L239.608,465.337L203.338,465.337ZM384.684,489.517L384.684,477.427L372.594,477.427L372.594,465.337L384.684,465.337L384.684,477.427L396.774,477.427L396.774,489.517L384.684,489.517ZM408.863,513.696L408.863,525.786L420.953,525.786L420.953,513.696L408.863,513.696Z" style="fill:rgb(235,235,235);"/>
    </g>
</svg>
