<?xml version="1.0" encoding="iso-8859-1"?>
<!-- Generator: Adobe Illustrator 21.0.0, SVG Export Plug-In . SVG Version: 6.00 Build 0)  -->
<svg version="1.1" id="Capa_1" xmlns="http://www.w3.org/2000/svg" xmlns:xlink="http://www.w3.org/1999/xlink" x="0px" y="0px"
	 viewBox="0 0 349.76 244.22" style="enable-background:new 0 0 349.76 244.22;" xml:space="preserve">
<g>
	<path style="fill-rule:evenodd;clip-rule:evenodd;fill:#FF441F;" d="M25,5h299.77c11,0,20,9,20,20v194.23c0,11-9,20-20,20H25
		c-11,0-20-9-20-20V25C5,14,14,5,25,5L25,5z"/>
	<path style="fill:#FFFFFF;" d="M77.37,89.15c-0.53,1.85-1.01,3.65-1.43,5.37c-0.53,2.16-1.02,4.13-1.46,5.89
		c-0.44,1.73-0.74,3.11-0.92,4.13c-0.35,1.8-1.53,2.93-3.41,3.3c-1.62,0.32-3.36,0.19-5.15-0.4c-1.77-0.58-3.37-1.58-4.78-2.97
		C58.74,103,58,101.15,58,98.98c0-1.77,0.44-4.57,1.35-8.55c0.89-3.88,2.17-8.49,3.81-13.7c1.63-5.17,3.6-10.85,5.87-16.91
		c1.95-5.2,4.13-10.44,6.5-15.6c0.78-1.69,2.38-2.86,4.23-3.07c4.19-0.49,7.82-0.37,10.89,0.36c1.85,0.44,2.85,2.45,2.07,4.19
		c-1.98,4.44-3.81,8.86-5.45,13.16c-1.32,3.49-2.59,6.94-3.79,10.29c-0.12,0.33,0.22,0.64,0.54,0.49c1.6-0.74,3.17-1.6,4.71-2.59
		c2.52-1.62,4.82-3.56,6.83-5.76c2-2.19,3.65-4.67,4.88-7.36c1.22-2.66,1.84-5.56,1.84-8.61c0-3.92-1.09-6.82-3.23-8.61
		c-2.17-1.81-5.22-2.73-9.08-2.73c-4.11,0-7.86,0.97-11.16,2.9c-3.38,1.97-6.31,4.39-8.7,7.2c-2.4,2.83-4.3,5.85-5.63,8.98
		c-1.32,3.11-1.99,5.83-1.99,8.1c0,1.62-0.86,2.8-2.41,3.3c-1.36,0.44-2.87,0.38-4.41-0.2c-1.49-0.55-2.86-1.64-4.09-3.24
		c-1.24-1.61-1.86-3.78-1.86-6.46c0-2.34,0.89-5.1,2.71-8.43c1.78-3.25,4.41-6.41,7.81-9.4c3.4-2.98,7.69-5.57,12.75-7.7
		c5.1-2.13,10.99-3.22,17.51-3.22c3.71,0,7.44,0.44,11.06,1.29c3.66,0.87,6.97,2.19,9.85,3.92c2.91,1.75,5.31,3.96,7.11,6.55
		c1.84,2.64,2.77,5.73,2.77,9.19c0,3.73-0.82,7.22-2.43,10.39c-1.6,3.14-3.8,6-6.54,8.51c-2.72,2.49-5.93,4.69-9.57,6.53
		c-3,1.52-6.18,2.82-9.49,3.86c-0.21,0.07-0.29,0.17-0.28,0.39c0.07,1.65,0.19,3.27,0.35,4.84c0.19,1.8,0.44,3.56,0.74,5.22
		c0.3,1.64,0.65,3.23,1.06,4.74c0.32,1.17,0.67,2.31,1.05,3.38c0.24,0.69,0.49,1.36,0.75,1.99c0.52,1.27,1.09,2.49,1.69,3.62
		c0.6,1.11,1.24,2.16,1.92,3.13c0.66,0.94,1.37,1.83,2.11,2.64c0.72,0.78,1.48,1.51,2.26,2.15c0.76,0.63,1.57,1.2,2.39,1.69
		c0.8,0.48,1.64,0.89,2.49,1.24c0.84,0.34,1.72,0.61,2.59,0.81c0.88,0.2,1.79,0.33,2.7,0.38c0.92,0.06,1.87,0.04,2.82-0.04
		c0.97-0.08,1.95-0.24,2.93-0.47c1-0.23,2.03-0.55,3.04-0.94c1.04-0.39,2.1-0.87,3.14-1.41c0.4-0.21,0.8-0.43,1.2-0.66
		c1.3-0.75,2.95-0.39,3.83,0.83c0.87,1.22,0.68,2.9-0.45,3.89c-0.55,0.49-1.11,0.96-1.66,1.41c-1.33,1.1-2.67,2.11-3.98,3.02
		c-1.24,0.86-2.51,1.66-3.75,2.37c-0.63,0.36-1.28,0.71-1.94,1.05c-1.28,0.65-2.58,1.22-3.85,1.7c-1.27,0.48-2.55,0.87-3.8,1.18
		c-1.25,0.3-2.5,0.52-3.73,0.65c-0.87,0.09-1.75,0.13-2.6,0.13c-0.35,0-0.69-0.01-1.03-0.02c-1.18-0.05-2.36-0.19-3.5-0.42
		c-0.57-0.11-1.14-0.25-1.69-0.4c-0.54-0.15-1.09-0.33-1.64-0.53c-1.06-0.39-2.12-0.87-3.12-1.42c-0.99-0.54-1.96-1.17-2.89-1.87
		c-0.75-0.56-1.48-1.18-2.17-1.84c-0.84-0.79-1.65-1.66-2.42-2.6c-0.76-0.92-1.49-1.91-2.17-2.96c-0.68-1.04-1.32-2.15-1.91-3.3
		c-0.59-1.14-1.15-2.36-1.66-3.62c-0.5-1.24-0.97-2.56-1.4-3.93c-0.42-1.34-0.8-2.76-1.14-4.22c-0.34-1.46-0.63-2.97-0.87-4.5
		c-0.22-1.35-0.4-2.75-0.54-4.17C78.1,88.78,77.49,88.73,77.37,89.15L77.37,89.15z"/>
	<path style="fill:#FFFFFF;" d="M300.02,34.62c0,6.12-4.96,11.08-11.08,11.08c-6.12,0-11.08-4.96-11.08-11.08
		c0-6.12,4.96-11.08,11.08-11.08C295.05,23.54,300.02,28.5,300.02,34.62L300.02,34.62z"/>
	<path style="fill:#FFFFFF;" d="M297.54,79.32c-0.54-0.84-1.58-1.38-2.65-1.38c-1.02,0-1.93,0.48-2.5,1.31
		c-0.66,0.95-1.47,2.08-2.41,3.36c-1.03,1.4-2.15,2.74-3.32,3.99c-1.16,1.24-2.29,2.32-3.36,3.21c-1.11,0.92-1.82,1.11-2.23,1.11
		c-0.28,0-0.81,0-0.93-1.4c-0.12-1.46,0.09-3.36,0.64-5.65c0.56-2.35,1.38-4.96,2.43-7.75c1.07-2.84,2.14-5.56,3.18-8.07
		c1.09-2.61,2.02-4.78,2.85-6.64c0.83-1.85,1.35-3.05,1.55-3.57c0.66-1.52,0.42-3.02-0.7-4.34c-1.03-1.21-2.41-2.05-4.09-2.52
		c-1.65-0.45-3.44-0.48-5.31-0.08c-2,0.43-3.59,1.59-4.72,3.44c-1,1.63-2.29,4.19-3.85,7.61c-1.56,3.43-3.08,7.23-4.49,11.3
		c-0.86,2.47-1.65,4.98-2.37,7.51c-1.19,4.21-3.65,7.95-7.04,10.71c-1.21,0.99-2.49,1.92-3.81,2.79c-0.59,0.39-1.18,0.74-1.77,1.07
		c-0.19,0.1-0.38-0.12-0.25-0.29c1.02-1.35,2.03-2.8,3.01-4.36c2.02-3.2,3.87-7.04,5.48-11.4c1.71-4.62,2.78-8.83,3.18-12.52
		c0.41-3.74,0.27-7-0.42-9.69c-0.71-2.78-1.96-4.97-3.71-6.5c-1.81-1.59-4.05-2.39-6.64-2.39c-3.07,0-5.88,0.81-8.37,2.41
		c-1.7,1.09-3.28,2.31-4.71,3.64c-0.12,0.11-0.22,0.1-0.3-0.04c-0.32-0.51-0.74-0.98-1.28-1.43c-1.21-1-2.66-1.67-4.32-1.99
		c-1.67-0.32-3.36-0.2-5.01,0.34c-1.77,0.58-3.08,1.78-3.92,3.57c-1.6,3.44-3.29,7.46-5.02,11.94c-1.73,4.48-3.41,9.15-5,13.9
		c-0.18,0.53-0.35,1.06-0.53,1.58c-1.35,4.05-3.88,7.61-7.26,10.21c-0.89,0.69-1.82,1.34-2.76,1.96c-0.59,0.39-1.18,0.74-1.77,1.07
		c-0.19,0.1-0.38-0.12-0.25-0.29c1.02-1.35,2.03-2.8,3.01-4.36c2.02-3.2,3.87-7.04,5.48-11.4c1.7-4.62,2.77-8.83,3.18-12.52
		c0.41-3.74,0.27-7-0.42-9.69c-0.71-2.78-1.96-4.97-3.71-6.5c-1.81-1.59-4.05-2.39-6.64-2.39c-3.07,0-5.89,0.81-8.37,2.41
		c-1.7,1.09-3.28,2.31-4.71,3.65c-0.12,0.11-0.22,0.1-0.3-0.04c-0.32-0.5-0.75-0.98-1.28-1.43c-1.21-1-2.66-1.67-4.33-1.99
		c-1.67-0.32-3.36-0.2-5.01,0.34c-1.76,0.58-3.08,1.78-3.92,3.57c-1.6,3.45-3.29,7.46-5.01,11.94c-1.62,4.2-3.2,8.57-4.69,12.98
		c-1.13,3.33-2.82,6.01-5.34,8.47c-0.65,0.63-1.29,1.21-1.9,1.71c-1.11,0.92-1.82,1.11-2.23,1.11c-0.28,0-0.81,0-0.93-1.4
		c-0.13-1.46,0.09-3.36,0.64-5.65c0.56-2.35,1.38-4.95,2.43-7.75c1.05-2.81,2.13-5.53,3.18-8.07c1.07-2.56,2.03-4.79,2.85-6.64
		c0.84-1.88,1.35-3.05,1.54-3.57c0.67-1.52,0.42-3.02-0.7-4.33c-1.03-1.21-2.44-2.06-4.17-2.52c-1.69-0.45-3.49-0.47-5.31-0.07
		c-1.96,0.43-3.52,1.59-4.65,3.44c-0.23,0.37-0.46,0.77-0.71,1.22c-0.09,0.16-0.33,0.12-0.37-0.05c-0.21-1.01-0.56-1.97-1.03-2.85
		c-0.71-1.32-1.76-2.41-3.12-3.23c-1.38-0.83-3.14-1.25-5.22-1.25c-4.9,0-9.87,2.26-14.78,6.72c-4.81,4.38-8.8,11.37-11.86,20.78
		c-1.44,4.54-2.28,8.73-2.5,12.47c-0.23,3.78,0.08,7.04,0.9,9.69c0.85,2.73,2.21,4.89,4.05,6.42c1.89,1.57,4.16,2.37,6.76,2.37
		c1.92,0,3.75-0.33,5.44-0.98c1.64-0.63,3.16-1.45,4.51-2.42c1.04-0.75,2.02-1.59,2.9-2.52c0.63-0.66,1.74-0.39,2,0.48
		c0.29,0.98,0.7,1.85,1.21,2.61c1.28,1.87,3.31,2.83,6.02,2.83c3.01,0,6.05-1.13,9.04-3.36c1.39-1.04,2.75-2.17,4.07-3.38
		c0.3-0.27,0.76,0.02,0.65,0.41c-0.77,2.56-1.46,4.93-2.08,7.16c-1.05,3.74-1.9,6.96-2.54,9.58c-0.85,3.51-0.96,4.46-0.96,4.9
		c0,2.15,0.67,3.98,1.98,5.45c1.27,1.41,2.75,2.42,4.39,3.01c1.08,0.38,2.13,0.58,3.13,0.58c0.55,0,1.1-0.06,1.62-0.18
		c1.18-0.27,2.67-1.05,3.1-3.27l0.01-0.04c0.17-1.17,0.5-2.76,0.98-4.72c0.5-2.03,1.1-4.35,1.79-6.88c0.68-2.52,1.47-5.32,2.39-8.57
		c0.43-1.5,0.88-3.08,1.37-4.71c0.1-0.33,0.55-0.39,0.72-0.09c0.22,0.37,0.46,0.74,0.72,1.09c1.5,2.01,3.88,3.03,7.1,3.03
		c0.64,0.03,1.29,0.04,1.93,0.04h0c4.73,0,9.17-0.81,13.19-2.41c3.85-1.53,7.37-3.39,10.51-5.55c0.31-0.21,0.71,0.08,0.6,0.44
		c-0.9,2.97-1.72,5.75-2.43,8.3c-1.06,3.77-1.91,6.99-2.54,9.58c-0.85,3.51-0.96,4.46-0.96,4.9c0,2.15,0.67,3.98,1.98,5.45
		c1.27,1.41,2.75,2.42,4.39,3.01c1.08,0.38,2.13,0.58,3.13,0.58c0.55,0,1.1-0.06,1.62-0.18c1.18-0.27,2.67-1.05,3.1-3.27l0.01-0.04
		c0.17-1.17,0.5-2.76,0.98-4.72c0.49-2.03,1.1-4.34,1.79-6.87c0.69-2.53,1.47-5.33,2.39-8.57c0.43-1.51,0.88-3.08,1.37-4.71
		c0.1-0.33,0.55-0.39,0.72-0.09c0.22,0.37,0.46,0.74,0.72,1.1c1.49,2.01,3.88,3.03,7.1,3.03c0.65,0.03,1.29,0.04,1.93,0.04l0,0
		c4.73,0,9.17-0.81,13.19-2.41c4.51-1.79,8.58-4.04,12.11-6.69c0.6-0.45,1.18-0.91,1.75-1.37c0.26-0.21,0.65-0.02,0.64,0.31
		c0,0.15,0,0.3,0,0.45c0,2.82,0.59,5.12,1.76,6.84c1.28,1.87,3.31,2.83,6.02,2.83c3,0,6.07-1.13,9.09-3.35
		c2.88-2.11,5.6-4.61,8.09-7.42c2.45-2.77,4.6-5.53,6.4-8.21c1.82-2.71,3.04-4.56,3.74-5.66C298.06,81.13,298.07,80.15,297.54,79.32
		L297.54,79.32z M144.18,64.89L144.18,64.89c-0.21,1.98-0.63,4.24-1.24,6.72c-0.61,2.47-1.45,5.08-2.49,7.74
		c-1.04,2.65-2.14,5.15-3.29,7.42c-1.12,2.22-2.26,4.11-3.37,5.62c-1.09,1.47-2.11,2.57-3.04,3.26c-0.69,0.51-1.07,0.57-1.2,0.57
		c-0.06,0-0.11-0.01-0.17-0.04c-0.13-0.05-0.56-0.34-0.78-1.7c-0.21-1.24-0.23-2.83-0.06-4.75c0.17-1.94,0.57-4.18,1.17-6.64
		c0.61-2.46,1.44-5.07,2.49-7.74c1.05-2.69,2.16-5.18,3.29-7.42c1.12-2.21,2.25-4.13,3.38-5.68c1.08-1.5,2.1-2.62,3.03-3.31
		c0.69-0.51,1.07-0.57,1.2-0.57c0.06,0,0.11,0.01,0.16,0.03c0.13,0.06,0.58,0.36,0.86,1.73C144.37,61.35,144.39,62.95,144.18,64.89
		L144.18,64.89z M197.87,65.01L197.87,65.01c-0.35,1.95-0.9,4.2-1.64,6.67c-0.75,2.49-1.7,5.1-2.82,7.74
		c-1.22,2.68-2.49,5.18-3.75,7.43c-1.26,2.23-2.51,4.15-3.71,5.7c-1.17,1.51-2.26,2.63-3.23,3.33c-0.73,0.52-1.14,0.58-1.28,0.58
		c-0.07,0-0.12-0.01-0.18-0.04c-0.12-0.05-0.53-0.34-0.71-1.67c-0.16-1.21-0.08-2.81,0.26-4.76c0.35-1.99,0.9-4.26,1.64-6.73
		c0.74-2.46,1.68-5.08,2.83-7.76c1.13-2.67,2.36-5.16,3.67-7.39c1.31-2.24,2.58-4.14,3.77-5.64c1.17-1.47,2.26-2.58,3.24-3.27
		c0.73-0.52,1.14-0.58,1.28-0.58c0.06,0,0.12,0.01,0.17,0.03c0.12,0.05,0.53,0.34,0.71,1.67C198.29,61.53,198.21,63.11,197.87,65.01
		L197.87,65.01z M247.5,65.01L247.5,65.01c-0.35,1.95-0.9,4.19-1.64,6.67c-0.74,2.48-1.69,5.09-2.82,7.74
		c-1.22,2.67-2.48,5.17-3.75,7.43c-1.26,2.23-2.51,4.15-3.71,5.7c-1.17,1.51-2.26,2.63-3.23,3.33c-0.73,0.52-1.14,0.58-1.28,0.58
		c-0.06,0-0.12-0.01-0.17-0.04c-0.12-0.05-0.53-0.34-0.71-1.67c-0.17-1.22-0.08-2.82,0.26-4.76c0.35-2,0.9-4.26,1.64-6.73
		c0.74-2.46,1.68-5.08,2.82-7.76c1.13-2.66,2.36-5.15,3.67-7.39c1.31-2.24,2.58-4.13,3.78-5.64c1.17-1.47,2.26-2.57,3.24-3.27
		c0.74-0.52,1.14-0.58,1.28-0.58c0.06,0,0.12,0.01,0.17,0.03c0.12,0.05,0.53,0.34,0.71,1.67C247.92,61.54,247.83,63.12,247.5,65.01
		L247.5,65.01z"/>
	<path style="fill:#FFFFFF;" d="M297.61,166.62c-13.26,11.61-25.02,12.33-39.14,1.94c-6.49-4.77-12.31-10.46-18.82-15.21
		c-5.04-3.67-10.36-7.32-16.11-9.59c-9.95-3.94-20.04-2.6-29.12,2.92c-6.17,3.75-11.79,8.42-17.52,12.88
		c-0.81,0.62-1.41,0.96-2.02,0.93c-0.61,0.03-1.21-0.31-2.01-0.93c-5.72-4.45-11.35-9.13-17.52-12.88
		c-9.08-5.52-19.17-6.86-29.12-2.92c-5.75,2.27-11.07,5.92-16.11,9.59c-6.51,4.75-12.33,10.44-18.82,15.21
		c-14.12,10.4-25.88,9.67-39.14-1.94c-1.09-0.96-2.18-1.91-3.28-2.86c1.97,10.92,6.23,20.72,12.51,29.61
		c8.02,11.34,18.53,19.47,31.73,23.93c30.85,10.43,69.82-4.11,81.76-31.54c11.94,27.44,50.91,41.97,81.76,31.54
		c13.2-4.46,23.71-12.59,31.73-23.93c6.28-8.89,10.54-18.68,12.51-29.61C299.79,164.71,298.7,165.66,297.61,166.62L297.61,166.62z"
		/>
</g>
</svg>
