<?xml version="1.0" encoding="UTF-8" standalone="no"?>
<!DOCTYPE svg PUBLIC "-//W3C//DTD SVG 1.1//EN" "http://www.w3.org/Graphics/SVG/1.1/DTD/svg11.dtd">
<svg width="100%" height="100%" viewBox="0 0 800 800" version="1.1" xmlns="http://www.w3.org/2000/svg" xmlns:xlink="http://www.w3.org/1999/xlink" xml:space="preserve" xmlns:serif="http://www.serif.com/" style="fill-rule:evenodd;clip-rule:evenodd;stroke-linejoin:round;">
    <path d="M251.496,670.279L263.554,648.379C258.113,645.384 251.747,644.521 245.704,645.958L251.496,670.279ZM91.667,708.333L67.346,702.542C66.896,704.436 66.668,706.376 66.668,708.323C66.668,722.043 77.957,733.332 91.677,733.332C93.624,733.332 95.564,733.104 97.458,732.654L91.667,708.333ZM129.721,548.504L154.042,554.296C155.48,548.254 154.617,541.887 151.621,536.446L129.721,548.504ZM400,733.333C584.096,733.333 733.333,584.096 733.333,400L683.333,400C683.333,556.479 556.479,683.333 400,683.333L400,733.333ZM239.438,692.179C287.083,718.417 341.833,733.333 400,733.333L400,683.333C350.483,683.333 304,670.654 263.554,648.379L239.438,692.179ZM97.458,732.654L257.283,694.6L245.7,645.958L85.875,684.012L97.458,732.654ZM105.4,542.717L67.346,702.542L115.988,714.125L154.042,554.296L105.4,542.717ZM66.667,400C66.667,458.163 81.583,512.917 107.821,560.563L151.621,536.446C129.346,495.996 116.667,449.517 116.667,400L66.667,400ZM400,66.667C215.904,66.667 66.667,215.904 66.667,400L116.667,400C116.667,243.521 243.521,116.667 400,116.667L400,66.667ZM733.333,400C733.333,215.904 584.096,66.667 400,66.667L400,116.667C556.479,116.667 683.333,243.521 683.333,400L733.333,400Z" style="fill:white;fill-rule:nonzero;"/>
    <path d="M429.167,541.667L316.667,541.667L316.667,400L429.167,400C468.288,400 500,431.713 500,470.833C500,509.954 468.288,541.667 429.167,541.667ZM420.833,400L316.667,400L316.667,258.333L420.833,258.333C459.954,258.333 491.667,290.046 491.667,329.167C491.667,368.288 459.954,400 420.833,400Z" style="fill:none;fill-rule:nonzero;stroke:white;stroke-width:50px;"/>
</svg>
